<svg width="142" height="71" viewBox="0 0 142 71" fill="none" xmlns="http://www.w3.org/2000/svg">
<rect width="142" height="71" fill="#F5F5F5"/>
<g id="Screen 3">
<g id="iPhone 13 / 13 Pro - 12" filter="url(#filter0_d_1_44)">
<g clip-path="url(#clip0_1_44)">
<rect x="-42" y="-654" width="390" height="844" rx="30" fill="white"/>
<g id="Group 4">
<path id="Subtract" fill-rule="evenodd" clip-rule="evenodd" d="M-22 -523C-22 -534.046 -13.0457 -543 -2 -543H308C319.046 -543 328 -534.046 328 -523V-74.993C327.834 -74.9977 327.667 -75 327.5 -75C317.835 -75 310 -67.165 310 -57.5C310 -47.835 317.835 -40 327.5 -40C327.667 -40 327.834 -40.0023 328 -40.007V109C328 120.046 319.046 129 308 129H-2C-13.0457 129 -22 120.046 -22 109V-40.007C-12.5662 -40.2717 -5 -48.0023 -5 -57.5C-5 -66.9977 -12.5662 -74.7283 -22 -74.993V-523Z" fill="#EDEDED"/>
<g id="SVGRepo_iconCarrier">
<path id="Vector" d="M0 71V0H4.99219V71H0ZM7.44862 70.9495V0H9.98438V70.9495H7.44862ZM14.9766 70.9495V0H17.433V70.9495H14.9766ZM27.4174 70.9495V0H29.8738V70.9495H27.4174ZM37.4017 70.9495V0H42.3146V70.9495H37.4017ZM49.8426 70.9495V0H52.299V70.9495H49.8426ZM54.8347 70.9495V0H57.2912V70.9495H54.8347ZM59.8269 70.9495V0H62.2834V70.9495H59.8269ZM69.7323 70.9495V0H74.7244V70.9495H69.7323ZM82.1731 70.9495V0H87.1653V70.9495H82.1731ZM92.1572 70.9495V0H97.1496V70.9495H92.1572ZM102.142 70.9495V0H107.134V70.9495H102.142ZM109.59 70.9495V0H114.583V70.9495H109.59ZM122.111 70.9495V0H129.559V70.9495H122.111ZM132.016 70.9495V0H134.551V70.9495H132.016ZM137.008 71V0H142V71H137.008Z" fill="black"/>
</g>
</g>
</g>
<rect x="-47" y="-659" width="400" height="854" rx="35" stroke="black" stroke-width="10"/>
</g>
</g>
<defs>
<filter id="filter0_d_1_44" x="-72" y="-680" width="450" height="904" filterUnits="userSpaceOnUse" color-interpolation-filters="sRGB">
<feFlood flood-opacity="0" result="BackgroundImageFix"/>
<feColorMatrix in="SourceAlpha" type="matrix" values="0 0 0 0 0 0 0 0 0 0 0 0 0 0 0 0 0 0 127 0" result="hardAlpha"/>
<feOffset dy="4"/>
<feGaussianBlur stdDeviation="10"/>
<feComposite in2="hardAlpha" operator="out"/>
<feColorMatrix type="matrix" values="0 0 0 0 0 0 0 0 0 0 0 0 0 0 0 0 0 0 0.2 0"/>
<feBlend mode="normal" in2="BackgroundImageFix" result="effect1_dropShadow_1_44"/>
<feBlend mode="normal" in="SourceGraphic" in2="effect1_dropShadow_1_44" result="shape"/>
</filter>
<clipPath id="clip0_1_44">
<rect x="-42" y="-654" width="390" height="844" rx="30" fill="white"/>
</clipPath>
</defs>
</svg>
